<?xml version="1.0" encoding="UTF-8" standalone="no"?>
<!DOCTYPE svg PUBLIC "-//W3C//DTD SVG 1.1//EN" "http://www.w3.org/Graphics/SVG/1.1/DTD/svg11.dtd">
<svg width="100%" height="100%" viewBox="0 0 1077 269" version="1.1" xmlns="http://www.w3.org/2000/svg" xmlns:xlink="http://www.w3.org/1999/xlink" xml:space="preserve" xmlns:serif="http://www.serif.com/" style="fill-rule:evenodd;clip-rule:evenodd;stroke-linejoin:round;stroke-miterlimit:2;">
    <g transform="matrix(0.699363,0,0,0.699363,-210.521,-354.371)">
        <g transform="matrix(436.717,0,0,436.717,305.283,805.456)">
            <path d="M0.02,-0.488L0.02,-0.684L0.166,-0.684L0.166,-0.488L0.244,-0.488L0.244,-0.361L0.166,-0.361L0.166,-0.176C0.166,-0.143 0.182,-0.127 0.215,-0.127L0.244,-0.127L0.244,-0L0.215,-0C0.085,-0 0.02,-0.065 0.02,-0.195L0.02,-0.361L-0.01,-0.361L-0.01,-0.488L0.02,-0.488Z" style="fill:white;fill-rule:nonzero;"/>
        </g>
        <g transform="matrix(436.717,0,0,436.717,433.227,805.456)">
            <path d="M0.146,-0.337L0.146,-0L0,-0L0,-0.684L0.146,-0.684L0.146,-0.464C0.146,-0.486 0.179,-0.498 0.244,-0.498C0.342,-0.498 0.391,-0.457 0.391,-0.376L0.391,-0L0.244,-0L0.244,-0.332C0.244,-0.358 0.228,-0.371 0.195,-0.371C0.163,-0.371 0.146,-0.36 0.146,-0.337Z" style="fill:white;fill-rule:nonzero;"/>
        </g>
        <g transform="matrix(436.717,0,0,436.717,625.144,805.456)">
            <path d="M0.244,-0.293L0.244,-0.322C0.244,-0.355 0.228,-0.371 0.195,-0.371C0.163,-0.371 0.146,-0.355 0.146,-0.322L0.146,-0.293L0.244,-0.293ZM0.146,-0.195L0.146,-0.166C0.146,-0.133 0.163,-0.117 0.195,-0.117C0.22,-0.117 0.236,-0.127 0.242,-0.146L0.389,-0.146C0.376,-0.042 0.312,0.01 0.195,0.01C0.065,0.01 0,-0.055 0,-0.186L0,-0.303C0,-0.433 0.065,-0.498 0.195,-0.498C0.326,-0.498 0.391,-0.433 0.391,-0.303L0.391,-0.195L0.146,-0.195Z" style="fill:white;fill-rule:nonzero;"/>
        </g>
        <g transform="matrix(436.717,0,0,436.717,817.061,805.456)">
            <path d="M0.146,-0.664L0.146,-0.537L0,-0.537L0,-0.664L0.146,-0.664ZM0,-0.488L0.146,-0.488L0.146,-0C0.146,0.13 0.081,0.195 -0.049,0.195L-0.049,0.068C-0.016,0.068 0,0.052 0,0.02L0,-0.488Z" style="fill:white;fill-rule:nonzero;"/>
        </g>
        <g transform="matrix(436.717,0,0,436.717,902.357,805.456)">
            <path d="M0.195,-0.195C0.163,-0.195 0.146,-0.182 0.146,-0.156C0.146,-0.13 0.163,-0.117 0.195,-0.117C0.228,-0.117 0.244,-0.129 0.244,-0.151L0.244,-0.195L0.195,-0.195ZM0.244,-0.293L0.244,-0.322C0.244,-0.355 0.228,-0.371 0.195,-0.371C0.17,-0.371 0.155,-0.361 0.149,-0.342L0.002,-0.342C0.014,-0.446 0.079,-0.498 0.195,-0.498C0.326,-0.498 0.391,-0.433 0.391,-0.303L0.391,-0L0.244,-0L0.244,-0.02C0.244,0 0.212,0.01 0.146,0.01C0.049,0.01 0,-0.031 0,-0.112L0,-0.171C0,-0.252 0.049,-0.293 0.146,-0.293L0.244,-0.293Z" style="fill:white;fill-rule:nonzero;"/>
        </g>
        <g transform="matrix(436.717,0,0,436.717,1094.27,805.456)">
            <path d="M0.146,-0.337L0.146,-0L0,-0L0,-0.488L0.146,-0.488L0.146,-0.464C0.146,-0.486 0.179,-0.498 0.244,-0.498C0.342,-0.498 0.391,-0.457 0.391,-0.376L0.391,-0L0.244,-0L0.244,-0.332C0.244,-0.358 0.228,-0.371 0.195,-0.371C0.163,-0.371 0.146,-0.36 0.146,-0.337Z" style="fill:white;fill-rule:nonzero;"/>
        </g>
        <g transform="matrix(436.717,0,0,436.717,1286.19,805.456)">
            <path d="M0.244,-0.464L0.244,-0.684L0.391,-0.684L0.391,-0L0.244,-0L0.244,-0.024C0.244,-0.002 0.212,0.01 0.146,0.01C0.049,0.01 0,-0.031 0,-0.112L0,-0.376C0,-0.457 0.049,-0.498 0.146,-0.498C0.212,-0.498 0.244,-0.486 0.244,-0.464ZM0.146,-0.156C0.146,-0.13 0.163,-0.117 0.195,-0.117C0.228,-0.117 0.244,-0.129 0.244,-0.151L0.244,-0.337C0.244,-0.36 0.228,-0.371 0.195,-0.371C0.163,-0.371 0.146,-0.358 0.146,-0.332L0.146,-0.156Z" style="fill:white;fill-rule:nonzero;"/>
        </g>
        <g transform="matrix(436.717,0,0,436.717,1478.11,805.456)">
            <path d="M0.195,-0.195C0.163,-0.195 0.146,-0.182 0.146,-0.156C0.146,-0.13 0.163,-0.117 0.195,-0.117C0.228,-0.117 0.244,-0.129 0.244,-0.151L0.244,-0.195L0.195,-0.195ZM0.244,-0.293L0.244,-0.322C0.244,-0.355 0.228,-0.371 0.195,-0.371C0.17,-0.371 0.155,-0.361 0.149,-0.342L0.002,-0.342C0.014,-0.446 0.079,-0.498 0.195,-0.498C0.326,-0.498 0.391,-0.433 0.391,-0.303L0.391,-0L0.244,-0L0.244,-0.02C0.244,0 0.212,0.01 0.146,0.01C0.049,0.01 0,-0.031 0,-0.112L0,-0.171C0,-0.252 0.049,-0.293 0.146,-0.293L0.244,-0.293Z" style="fill:white;fill-rule:nonzero;"/>
        </g>
        <g transform="matrix(436.717,0,0,436.717,1670.02,805.456)">
            <path d="M0.244,-0.293L0.244,-0.322C0.244,-0.355 0.228,-0.371 0.195,-0.371C0.163,-0.371 0.146,-0.355 0.146,-0.322L0.146,-0.293L0.244,-0.293ZM0.146,-0.195L0.146,-0.166C0.146,-0.133 0.163,-0.117 0.195,-0.117C0.22,-0.117 0.236,-0.127 0.242,-0.146L0.389,-0.146C0.376,-0.042 0.312,0.01 0.195,0.01C0.065,0.01 0,-0.055 0,-0.186L0,-0.303C0,-0.433 0.065,-0.498 0.195,-0.498C0.326,-0.498 0.391,-0.433 0.391,-0.303L0.391,-0.195L0.146,-0.195Z" style="fill:white;fill-rule:nonzero;"/>
        </g>
    </g>
</svg>
